<?xml version="1.0" encoding="utf-8"?>
<!-- Generator: Adobe Illustrator 24.2.0, SVG Export Plug-In . SVG Version: 6.00 Build 0)  -->
<svg version="1.1" id="Layer_1" xmlns="http://www.w3.org/2000/svg" xmlns:xlink="http://www.w3.org/1999/xlink" x="0px" y="0px"
	 viewBox="0 0 48 48" style="enable-background:new 0 0 48 48;" xml:space="preserve">
<style type="text/css">
	.st0{fill:#08104D;}
</style>
<path class="st0" d="M24,2.4c-12.4,0-22.5,9.9-22.5,22.1c0,9.8,6.4,18.1,15.4,21c1.1,0.2,1.5-0.5,1.5-1.1c0-0.5,0-1.9,0-3.8
	c-6.3,1.3-7.6-3-7.6-3c-1-2.6-2.5-3.2-2.5-3.2c-2-1.4,0.2-1.3,0.2-1.3c2.3,0.2,3.4,2.3,3.4,2.3c2,3.4,5.3,2.4,6.6,1.8
	c0.2-1.4,0.8-2.4,1.4-3c-5-0.6-10.2-2.5-10.2-10.9c0-2.4,0.9-4.4,2.3-5.9c-0.3-0.6-1-2.8,0.2-5.9c0,0,1.9-0.6,6.2,2.3
	c1.8-0.5,3.7-0.7,5.6-0.7c1.9,0,3.8,0.3,5.6,0.7c4.3-2.9,6.2-2.3,6.2-2.3c1.2,3,0.4,5.3,0.2,5.9c1.4,1.5,2.3,3.5,2.3,5.9
	c0,8.5-5.3,10.4-10.3,10.9c0.8,0.7,1.5,2,1.5,4.1c0,3,0,5.3,0,6.1c0,0.6,0.4,1.3,1.5,1c9-2.9,15.4-11.2,15.4-20.9
	C46.5,12.3,36.4,2.4,24,2.4z"/>
</svg>
