<?xml version="1.0" encoding="utf-8"?>
<!-- Generator: Adobe Illustrator 24.2.0, SVG Export Plug-In . SVG Version: 6.00 Build 0)  -->
<svg version="1.1" id="Layer_1" xmlns="http://www.w3.org/2000/svg" xmlns:xlink="http://www.w3.org/1999/xlink" x="0px" y="0px"
	 viewBox="0 0 48 48" style="enable-background:new 0 0 48 48;" xml:space="preserve">
<style type="text/css">
	.st0{fill:#08104D;}
</style>
<g>
	<path class="st0" d="M33.7,0H14.3C6.4,0,0,6.4,0,14.3v19.4C0,41.6,6.4,48,14.3,48h19.4C41.6,48,48,41.6,48,33.7V14.3
		C48,6.4,41.6,0,33.7,0z M43.2,33.7c0,5.2-4.2,9.5-9.5,9.5H14.3c-5.2,0-9.5-4.2-9.5-9.5V14.3c0-5.2,4.2-9.5,9.5-9.5h19.4
		c5.2,0,9.5,4.2,9.5,9.5L43.2,33.7L43.2,33.7z"/>
	<path class="st0" d="M24,11.6c-6.8,0-12.4,5.6-12.4,12.4S17.2,36.4,24,36.4S36.4,30.8,36.4,24S30.8,11.6,24,11.6z M24,31.6
		c-4.2,0-7.6-3.4-7.6-7.6s3.4-7.6,7.6-7.6c4.2,0,7.6,3.4,7.6,7.6C31.6,28.2,28.2,31.6,24,31.6z"/>
	<circle class="st0" cx="36.4" cy="11.7" r="3"/>
</g>
</svg>
